<svg width="25" height="18" viewBox="0 0 31 20" fill="none" xmlns="http://www.w3.org/2000/svg">
<path fill-rule="evenodd" clip-rule="evenodd" d="M0.938873 4.375C0.938873 3.38044 1.33396 2.42661 2.03722 1.72335C2.74048 1.02009 3.69431 0.625 4.68887 0.625H18.7514C19.6609 0.624893 20.5395 0.955361 21.2235 1.55486C21.9075 2.15437 22.3503 2.98204 22.4695 3.88375L28.3007 1.2925C28.5862 1.16532 28.8989 1.11149 29.2104 1.13591C29.5219 1.16033 29.8224 1.26221 30.0845 1.4323C30.3466 1.6024 30.5621 1.83531 30.7113 2.10986C30.8605 2.38441 30.9387 2.6919 30.9389 3.00438V16.9956C30.9386 17.3079 30.8604 17.6151 30.7113 17.8894C30.5621 18.1637 30.3469 18.3965 30.085 18.5665C29.8232 18.7366 29.523 18.8385 29.2117 18.8632C28.9004 18.8878 28.588 18.8343 28.3026 18.7075L22.4695 16.1163C22.3503 17.018 21.9075 17.8456 21.2235 18.4451C20.5395 19.0446 19.6609 19.3751 18.7514 19.375H4.68887C3.69431 19.375 2.74048 18.9799 2.03722 18.2766C1.33396 17.5734 0.938873 16.6196 0.938873 15.625V4.375ZM22.5014 14.0781L29.0639 16.9956V3.00438L22.5014 5.92187V14.0781ZM4.68887 2.5C4.19159 2.5 3.71468 2.69754 3.36305 3.04918C3.01142 3.40081 2.81387 3.87772 2.81387 4.375V15.625C2.81387 16.1223 3.01142 16.5992 3.36305 16.9508C3.71468 17.3025 4.19159 17.5 4.68887 17.5H18.7514C19.2487 17.5 19.7256 17.3025 20.0772 16.9508C20.4288 16.5992 20.6264 16.1223 20.6264 15.625V4.375C20.6264 3.87772 20.4288 3.40081 20.0772 3.04918C19.7256 2.69754 19.2487 2.5 18.7514 2.5H4.68887Z" fill="
#c28135"/>
</svg>
