<svg width="31" height="30" viewBox="0 0 31 30" fill="none" xmlns="http://www.w3.org/2000/svg">
<rect width="30" height="30" transform="translate(0.938873)" fill="white"/>
<path d="M14.7814 3.29125C15.1814 2.23625 16.6951 2.23625 17.0964 3.29125L19.6839 10.4587C19.7741 10.6922 19.9331 10.8929 20.1398 11.0341C20.3464 11.1754 20.5911 11.2507 20.8414 11.25H27.2001C28.3751 11.25 28.8876 12.7125 27.9639 13.4288L23.4389 17.5C23.2362 17.6558 23.0881 17.8718 23.0157 18.1171C22.9434 18.3623 22.9507 18.6241 23.0364 18.865L24.6889 25.8687C25.0914 26.9937 23.7889 27.96 22.8039 27.2675L16.6576 23.3675C16.4471 23.2196 16.1961 23.1402 15.9389 23.1402C15.6816 23.1402 15.4306 23.2196 15.2201 23.3675L9.07388 27.2675C8.09013 27.96 6.78638 26.9925 7.18888 25.8687L8.84138 18.865C8.9271 18.6241 8.93432 18.3623 8.86201 18.1171C8.7897 17.8718 8.64157 17.6558 8.43888 17.5L3.91388 13.4288C2.98888 12.7125 3.50388 11.25 4.67638 11.25H11.0351C11.2855 11.2508 11.5302 11.1756 11.7369 11.0343C11.9436 10.893 12.1025 10.6923 12.1926 10.4587L14.7801 3.29125H14.7814Z" fill="#FFC700" stroke="#FFC700" stroke-width="2.5" stroke-linecap="round" stroke-linejoin="round"/>
</svg>
