<svg width="21" height="20" viewBox="0 0 31 30" fill="none" xmlns="http://www.w3.org/2000/svg">
<path d="M10.9776 9.59812L15.0726 1.485C15.1513 1.32179 15.2742 1.18394 15.4273 1.08714C15.5805 0.990349 15.7577 0.9385 15.9389 0.9375C16.282 0.9375 16.6251 1.11938 16.8108 1.485L20.9058 9.59812L30.0895 10.9031C30.3184 10.9391 30.5279 11.053 30.6827 11.2255C30.8374 11.3979 30.9279 11.6185 30.9389 11.85C30.952 12.0041 30.9301 12.1592 30.8749 12.3036C30.8197 12.4481 30.7326 12.5783 30.6201 12.6844L24.0145 18.9769L25.5708 27.8456C25.717 28.6762 24.8958 29.3269 24.172 28.9556L15.9389 24.7256L7.70951 28.9556C7.62343 29.0003 7.53116 29.0319 7.43576 29.0494C6.79451 29.1619 6.18326 28.5731 6.31076 27.8456L7.86701 18.9769L1.26326 12.6844C1.16059 12.5872 1.07899 12.4701 1.02351 12.3401C0.968031 12.2101 0.939864 12.0701 0.940755 11.9287C0.940853 11.7289 0.995995 11.533 1.10013 11.3625C1.174 11.2389 1.27469 11.1334 1.39476 11.0539C1.51484 10.9744 1.65123 10.9229 1.79388 10.9031L10.9776 9.59812V9.59812ZM15.9389 22.5506C16.0902 22.55 16.2395 22.586 16.3739 22.6556L23.2851 26.2069L21.9839 18.7875C21.9532 18.6169 21.9648 18.4413 22.0178 18.2762C22.0707 18.1111 22.1634 17.9615 22.2876 17.8406L27.7383 12.6469L20.1408 11.5669C19.9834 11.5431 19.8342 11.4816 19.7059 11.3875C19.5775 11.2935 19.4739 11.1697 19.4039 11.0269L15.9408 4.16813L15.9389 4.17375V22.5488V22.5506Z" fill="#FFC700"/>
</svg>
