<svg width="31" height="30" viewBox="0 0 31 30" fill="none" xmlns="http://www.w3.org/2000/svg">
<path d="M18.6137 9.59473L11.4067 14.8096C11.3767 14.8311 11.3523 14.8595 11.3355 14.8924C11.3187 14.9252 11.3099 14.9616 11.3099 14.9985C11.3099 15.0354 11.3187 15.0718 11.3355 15.1047C11.3523 15.1375 11.3767 15.1659 11.4067 15.1875L18.6137 20.4023C18.769 20.5137 18.9858 20.4023 18.9858 20.2119V18.8379C18.9858 18.5391 18.8422 18.2549 18.599 18.0791L14.3393 15L18.599 11.918C18.8422 11.7422 18.9858 11.4609 18.9858 11.1592V9.78516C18.9858 9.59473 18.769 9.4834 18.6137 9.59473Z" fill="#545454"/>
<path d="M15.9389 1.875C8.69083 1.875 2.81387 7.75195 2.81387 15C2.81387 22.248 8.69083 28.125 15.9389 28.125C23.1869 28.125 29.0639 22.248 29.0639 15C29.0639 7.75195 23.1869 1.875 15.9389 1.875ZM15.9389 25.8984C9.9213 25.8984 5.04044 21.0176 5.04044 15C5.04044 8.98242 9.9213 4.10156 15.9389 4.10156C21.9565 4.10156 26.8373 8.98242 26.8373 15C26.8373 21.0176 21.9565 25.8984 15.9389 25.8984Z" fill="#545454"/>
</svg>
