<svg width="24" height="26" viewBox="0 0 24 26" fill="none" xmlns="http://www.w3.org/2000/svg">
<path d="M20.6889 14.9825V10.5C20.6889 6.47875 17.9576 3.09125 14.2576 2.0725C13.8914 1.15 12.9964 0.5 11.9389 0.5C10.8814 0.5 9.98638 1.15 9.62013 2.0725C5.92013 3.0925 3.18887 6.47875 3.18887 10.5V14.9825L1.05512 17.1163C0.938821 17.2321 0.846587 17.3699 0.78373 17.5215C0.720873 17.6732 0.688636 17.8358 0.688875 18V20.5C0.688875 20.8315 0.820571 21.1495 1.05499 21.3839C1.28941 21.6183 1.60735 21.75 1.93887 21.75H21.9389C22.2704 21.75 22.5883 21.6183 22.8228 21.3839C23.0572 21.1495 23.1889 20.8315 23.1889 20.5V18C23.1891 17.8358 23.1569 17.6732 23.094 17.5215C23.0312 17.3699 22.9389 17.2321 22.8226 17.1163L20.6889 14.9825ZM20.6889 19.25H3.18887V18.5175L5.32262 16.3837C5.43893 16.2679 5.53116 16.1301 5.59402 15.9785C5.65688 15.8268 5.68911 15.6642 5.68887 15.5V10.5C5.68887 7.05375 8.49262 4.25 11.9389 4.25C15.3851 4.25 18.1889 7.05375 18.1889 10.5V15.5C18.1889 15.8325 18.3201 16.15 18.5551 16.3837L20.6889 18.5175V19.25ZM11.9389 25.5C12.713 25.501 13.4682 25.2607 14.0995 24.8127C14.7308 24.3647 15.2068 23.7311 15.4614 23H8.41637C8.67095 23.7311 9.14697 24.3647 9.77826 24.8127C10.4096 25.2607 11.1647 25.501 11.9389 25.5V25.5Z" fill="rgb(108, 107, 107)"/>
</svg>
