<svg width="31" height="30" viewBox="0 0 31 30" fill="none" xmlns="http://www.w3.org/2000/svg">
<path d="M20.4711 14.8096L13.2641 9.59473C13.229 9.5693 13.1877 9.55406 13.1445 9.55072C13.1014 9.54737 13.0581 9.55603 13.0196 9.57575C12.9811 9.59547 12.9487 9.62547 12.9262 9.66244C12.9037 9.6994 12.8919 9.74187 12.892 9.78516V11.1592C12.892 11.458 13.0356 11.7422 13.2787 11.918L17.5385 15L13.2787 18.082C13.0356 18.2578 12.892 18.5391 12.892 18.8408V20.2148C12.892 20.4053 13.1088 20.5166 13.2641 20.4053L20.4711 15.1904C20.6 15.0967 20.6 14.9033 20.4711 14.8096Z" fill="#545454"/>
<path d="M15.9389 1.875C8.69083 1.875 2.81387 7.75195 2.81387 15C2.81387 22.248 8.69083 28.125 15.9389 28.125C23.1869 28.125 29.0639 22.248 29.0639 15C29.0639 7.75195 23.1869 1.875 15.9389 1.875ZM15.9389 25.8984C9.9213 25.8984 5.04044 21.0176 5.04044 15C5.04044 8.98242 9.9213 4.10156 15.9389 4.10156C21.9565 4.10156 26.8373 8.98242 26.8373 15C26.8373 21.0176 21.9565 25.8984 15.9389 25.8984Z" fill="#545454"/>
</svg>
