<svg width="31" height="30" viewBox="0 0 31 30" fill="none" xmlns="http://www.w3.org/2000/svg">
<path d="M18.0482 10.3125H13.8295C13.3109 10.3125 12.892 10.7314 12.892 11.25V27.1875C12.892 27.7061 13.3109 28.125 13.8295 28.125H18.0482C18.5668 28.125 18.9857 27.7061 18.9857 27.1875V11.25C18.9857 10.7314 18.5668 10.3125 18.0482 10.3125ZM27.0717 1.875H22.8529C22.3344 1.875 21.9154 2.29395 21.9154 2.8125V27.1875C21.9154 27.7061 22.3344 28.125 22.8529 28.125H27.0717C27.5902 28.125 28.0092 27.7061 28.0092 27.1875V2.8125C28.0092 2.29395 27.5902 1.875 27.0717 1.875ZM9.02481 18.75H4.80606C4.28751 18.75 3.86856 19.1689 3.86856 19.6875V27.1875C3.86856 27.7061 4.28751 28.125 4.80606 28.125H9.02481C9.54337 28.125 9.96231 27.7061 9.96231 27.1875V19.6875C9.96231 19.1689 9.54337 18.75 9.02481 18.75Z" fill="#9747FF"/>
</svg>
