<svg width="17" height="16" viewBox="0 0 31 30" fill="none" xmlns="http://www.w3.org/2000/svg">
<path d="M27.5434 10.3447L20.1049 9.26367L16.7797 2.52246C16.6889 2.33789 16.5395 2.18848 16.3549 2.09766C15.892 1.86914 15.3295 2.05957 15.098 2.52246L11.7729 9.26367L4.33438 10.3447C4.1293 10.374 3.9418 10.4707 3.79824 10.6172C3.62469 10.7956 3.52906 11.0355 3.53235 11.2844C3.53565 11.5333 3.63761 11.7706 3.81582 11.9443L9.19766 17.1914L7.92617 24.6006C7.89636 24.7729 7.91543 24.9502 7.98123 25.1123C8.04703 25.2743 8.15692 25.4147 8.29844 25.5175C8.43997 25.6203 8.60746 25.6814 8.78193 25.6938C8.9564 25.7063 9.13087 25.6696 9.28555 25.5879L15.9389 22.0898L22.5922 25.5879C22.7738 25.6846 22.9848 25.7168 23.1869 25.6816C23.6967 25.5937 24.0395 25.1104 23.9516 24.6006L22.6801 17.1914L28.0619 11.9443C28.2084 11.8008 28.3051 11.6133 28.3344 11.4082C28.4135 10.8955 28.0561 10.4209 27.5434 10.3447V10.3447Z" fill="#FFC700"/>
</svg>
