<svg width="21" height="20" viewBox="0 0 31 30" fill="none" xmlns="http://www.w3.org/2000/svg">
<path d="M8.43887 3.75V24.225L14.182 19.6294C14.6807 19.2305 15.3003 19.0131 15.9389 19.0131C16.5775 19.0131 17.1971 19.2305 17.6957 19.6294L23.4389 24.2231V3.75H8.43887ZM7.50137 1.875H24.3764C24.625 1.875 24.8635 1.97377 25.0393 2.14959C25.2151 2.3254 25.3139 2.56386 25.3139 2.8125V26.175C25.3136 26.3514 25.2636 26.5242 25.1696 26.6734C25.0755 26.8227 24.9413 26.9424 24.7823 27.0187C24.6232 27.0951 24.4459 27.1251 24.2706 27.1052C24.0953 27.0853 23.9292 27.0163 23.7914 26.9063L16.5239 21.0938C16.3577 20.9611 16.1515 20.8888 15.9389 20.8888C15.7263 20.8888 15.52 20.9611 15.3539 21.0938L8.08637 26.9063C7.94852 27.0163 7.78241 27.0853 7.60713 27.1052C7.43184 27.1251 7.2545 27.0951 7.09548 27.0187C6.93647 26.9424 6.80222 26.8227 6.70818 26.6734C6.61414 26.5242 6.56412 26.3514 6.56387 26.175V2.8125C6.56387 2.56386 6.66265 2.3254 6.83846 2.14959C7.01428 1.97377 7.25273 1.875 7.50137 1.875Z" fill="#545454"/>
</svg>
