<svg width="26" height="26" viewBox="0 0 26 26" fill="none" xmlns="http://www.w3.org/2000/svg">
<path d="M10.4389 3C9.11279 3 7.84102 3.52678 6.90334 4.46447C5.96566 5.40215 5.43887 6.67392 5.43887 8C5.43887 9.32608 5.96566 10.5979 6.90334 11.5355C7.84102 12.4732 9.11279 13 10.4389 13C11.765 13 13.0367 12.4732 13.9744 11.5355C14.9121 10.5979 15.4389 9.32608 15.4389 8C15.4389 6.67392 14.9121 5.40215 13.9744 4.46447C13.0367 3.52678 11.765 3 10.4389 3ZM2.93887 8C2.93887 6.01088 3.72905 4.10322 5.13557 2.6967C6.5421 1.29018 8.44975 0.5 10.4389 0.5C12.428 0.5 14.3357 1.29018 15.7422 2.6967C17.1487 4.10322 17.9389 6.01088 17.9389 8C17.9389 9.98912 17.1487 11.8968 15.7422 13.3033C14.3357 14.7098 12.428 15.5 10.4389 15.5C8.44975 15.5 6.5421 14.7098 5.13557 13.3033C3.72905 11.8968 2.93887 9.98912 2.93887 8V8ZM18.9739 2.69625C19.09 2.58003 19.2278 2.48783 19.3796 2.42493C19.5313 2.36202 19.694 2.32964 19.8582 2.32964C20.0225 2.32964 20.1852 2.36202 20.3369 2.42493C20.4887 2.48783 20.6265 2.58003 20.7426 2.69625C21.4392 3.39271 21.9918 4.21956 22.3687 5.12958C22.7457 6.03961 22.9398 7.01498 22.9398 8C22.9398 8.98502 22.7457 9.96039 22.3687 10.8704C21.9918 11.7804 21.4392 12.6073 20.7426 13.3038C20.6265 13.4199 20.4886 13.512 20.3369 13.5749C20.1851 13.6377 20.0225 13.6701 19.8582 13.6701C19.694 13.6701 19.5314 13.6377 19.3796 13.5749C19.2279 13.512 19.09 13.4199 18.9739 13.3038C18.8577 13.1876 18.7656 13.0497 18.7028 12.898C18.6399 12.7463 18.6076 12.5836 18.6076 12.4194C18.6076 12.2551 18.6399 12.0925 18.7028 11.9408C18.7656 11.789 18.8577 11.6511 18.9739 11.535C19.9112 10.5974 20.4378 9.32582 20.4378 8C20.4378 6.67418 19.9112 5.40264 18.9739 4.465C18.8577 4.34891 18.7655 4.21105 18.7025 4.0593C18.6396 3.90755 18.6073 3.74489 18.6073 3.58062C18.6073 3.41636 18.6396 3.2537 18.7025 3.10195C18.7655 2.9502 18.8577 2.81234 18.9739 2.69625V2.69625ZM19.8514 18.9462C19.932 18.625 20.1368 18.3488 20.4208 18.1784C20.7049 18.008 21.045 17.9573 21.3664 18.0375C23.0264 18.4525 24.0776 19.5125 24.6814 20.7225C25.2664 21.8912 25.4389 23.1975 25.4389 24.25C25.4389 24.5815 25.3072 24.8995 25.0728 25.1339C24.8383 25.3683 24.5204 25.5 24.1889 25.5C23.8574 25.5 23.5394 25.3683 23.305 25.1339C23.0706 24.8995 22.9389 24.5815 22.9389 24.25C22.9389 23.4287 22.7989 22.5463 22.4464 21.84C22.1126 21.1738 21.6001 20.6725 20.7601 20.4625C20.4388 20.3819 20.1627 20.1771 19.9923 19.893C19.8219 19.609 19.7712 19.2689 19.8514 18.9475V18.9462ZM6.06387 20.5C4.48887 20.5 2.93887 22.0163 2.93887 24.25C2.93887 24.5815 2.80718 24.8995 2.57276 25.1339C2.33834 25.3683 2.02039 25.5 1.68887 25.5C1.35735 25.5 1.03941 25.3683 0.80499 25.1339C0.570569 24.8995 0.438873 24.5815 0.438873 24.25C0.438873 20.96 2.80512 18 6.06387 18H14.8139C18.0726 18 20.4389 20.96 20.4389 24.25C20.4389 24.5815 20.3072 24.8995 20.0728 25.1339C19.8383 25.3683 19.5204 25.5 19.1889 25.5C18.8574 25.5 18.5394 25.3683 18.305 25.1339C18.0706 24.8995 17.9389 24.5815 17.9389 24.25C17.9389 22.0163 16.3889 20.5 14.8139 20.5H6.06387Z" fill="
#c28135"/>
</svg>
